<?xml version="1.0" encoding="iso-8859-1"?>
<!-- Uploaded to: SVG Repo, www.svgrepo.com, Generator: SVG Repo Mixer Tools -->
<svg fill="#000000" height="800px" width="800px" version="1.1" id="Layer_1" xmlns="http://www.w3.org/2000/svg" xmlns:xlink="http://www.w3.org/1999/xlink" 
	 viewBox="0 0 512 512" xml:space="preserve">
<g>
	<g>
		<path d="M510.404,110.013c-24.131-39.009-73.359-43.385-94.464-43.361c-5.281-17.663-21.59-30.351-40.897-30.351h-14.908
			c-38.81,0-70.382,31.579-70.382,70.394v39.759L3.124,433.084c-3.051,3.051-3.963,7.639-2.311,11.625
			c1.651,3.986,5.54,6.585,9.855,6.585h38.298c35.797,0,65.531-26.447,70.695-60.828h68.349l-18.057,25.798
			c-2.571,3.673-2.571,8.56,0,12.233l29.852,42.653c1.996,2.852,5.258,4.55,8.739,4.55h27.479c5.891,0,10.667-4.775,10.667-10.667
			c0-5.891-4.775-10.667-10.667-10.667h-21.925l-22.386-31.986l22.338-31.915h41.168l-18.049,25.8
			c-2.569,3.671-2.569,8.557,0,12.229l29.839,42.652c1.996,2.852,5.26,4.552,8.74,4.552h27.491c5.89,0,10.667-4.775,10.667-10.667
			c0-5.891-4.777-10.667-10.667-10.667h-21.936l-22.378-31.986l22.596-32.299c76.023-5.44,136.217-69.019,136.217-146.399v-92.809
			v-24.581h83.595c3.869,0,7.435-2.095,9.317-5.474C512.534,117.438,512.439,113.303,510.404,110.013z M48.964,429.959H36.418
			l39.494-39.494h22.061C93.069,413.015,72.963,429.959,48.964,429.959z M396.407,115.626v35.248v92.807h-0.002
			c0,69.173-56.283,125.45-125.461,125.45h-61.849c-0.362-0.018-0.723-0.018-1.084,0h-98.22H97.247l34.34-34.34h91.27
			c48.65,0,88.229-39.58,88.229-88.229c0-5.891-4.776-10.667-10.667-10.667s-10.667,4.775-10.667,10.667
			c0,36.886-30.01,66.896-66.896,66.896H152.92l155.042-155.042c0.036-0.036,0.066-0.076,0.101-0.112
			c0.209-0.214,0.413-0.435,0.603-0.667c0.113-0.137,0.211-0.281,0.316-0.422c0.102-0.138,0.209-0.272,0.305-0.415
			c0.109-0.162,0.203-0.331,0.302-0.497c0.079-0.132,0.162-0.261,0.236-0.398c0.09-0.166,0.165-0.338,0.245-0.509
			c0.068-0.145,0.141-0.289,0.203-0.437c0.068-0.164,0.124-0.333,0.183-0.5c0.058-0.161,0.119-0.321,0.17-0.485
			c0.051-0.169,0.089-0.339,0.131-0.51c0.042-0.166,0.089-0.332,0.123-0.501c0.039-0.198,0.063-0.399,0.092-0.599
			c0.02-0.144,0.048-0.287,0.063-0.433c0.035-0.353,0.053-0.706,0.053-1.06v-44.173c0-27.052,22.003-49.06,49.049-49.06h14.908
			c11.479,0,20.844,8.955,21.345,20.398c0.01,0.313,0.018,0.633,0.018,0.953V115.626z M417.738,104.958V88.046
			c13.885,0.216,39.925,2.705,59.324,16.912H417.738z"/>
	</g>
</g>
<g>
	<g>
		<path d="M364.6,78.954c-5.89,0-10.667,4.775-10.667,10.667v14.013c0,5.891,4.776,10.667,10.667,10.667s10.667-4.775,10.667-10.667
			V89.621C375.267,83.73,370.49,78.954,364.6,78.954z"/>
	</g>
</g>
<g>
	<g>
		<path d="M300.42,193.302c-5.89,0-10.667,4.775-10.667,10.667v6.453c0,5.891,4.777,10.667,10.667,10.667
			s10.667-4.775,10.667-10.667v-6.453C311.087,198.078,306.31,193.302,300.42,193.302z"/>
	</g>
</g>
</svg>