<?xml version="1.0" encoding="iso-8859-1"?>
<!-- Uploaded to: SVG Repo, www.svgrepo.com, Generator: SVG Repo Mixer Tools -->
<svg fill="#000000" height="800px" width="800px" version="1.1" id="Layer_1" xmlns="http://www.w3.org/2000/svg" xmlns:xlink="http://www.w3.org/1999/xlink" 
	 viewBox="0 0 512 512" xml:space="preserve">
<g>
	<g>
		<path d="M88.741,98.841c-5.651,0-10.245,4.594-10.245,10.245c0,5.662,4.594,10.245,10.245,10.245
			c5.662,0,10.245-4.583,10.245-10.245C98.986,103.435,94.403,98.841,88.741,98.841z"/>
	</g>
</g>
<g>
	<g>
		<path d="M88.741,98.841c-5.651,0-10.245,4.594-10.245,10.245c0,5.662,4.594,10.245,10.245,10.245
			c5.662,0,10.245-4.583,10.245-10.245C98.986,103.435,94.403,98.841,88.741,98.841z"/>
	</g>
</g>
<g>
	<g>
		<path d="M184.399,274.199c-7.808-2.789-13.936-9.332-16.84-17.991l-9.478-30.362c-1.701-5.475-7.518-8.513-12.982-6.813
			c-5.475,1.711-8.524,7.518-6.813,12.993l9.509,30.455c0.01,0.052,0.031,0.104,0.041,0.145c0.01,0.021,0.042,0.104,0.042,0.114
			c4.905,14.735,15.668,26.038,29.553,30.994c1.151,0.415,2.323,0.601,3.484,0.601c4.262,0,8.254-2.644,9.768-6.885
			C192.601,282.059,189.791,276.127,184.399,274.199z"/>
	</g>
</g>
<g>
	<g>
		<path d="M512,387.453c0-1.379-0.28-2.748-0.819-4.023l-20.459-48.56c0,0-0.031-95.15-0.093-96.27
			c-0.498-8.036,0.83-16.187,3.961-24.233c15.886-40.855,9.187-110.725,8.897-113.68c-0.55-5.517-5.361-9.612-10.878-9.322
			c-5.537,0.301-9.861,4.915-9.82,10.452c0.114,13.086-5.299,47.16-26.535,82.447c-2.084,3.453-6.18,5.216-10.432,4.49
			c-0.622-0.104-224.954-36.127-224.954-36.127l-59.417-74.214c0.622-0.944,1.213-1.929,1.784-2.966
			c6.885-12.661,6.388-28.049-1.286-40.161c-1.918-3.028-5.237-4.832-8.835-4.822c-5.371,0.031-10.577,1.161-15.357,3.225
			c-0.861-1.649-1.825-3.246-2.924-4.76c-1.877-2.623-4.967-4.086-8.192-3.868c-13.978,0.933-26.38,9.415-32.342,22.128
			c-1.846,3.92-2.976,7.933-3.349,11.935L59.002,85.019H10.369C4.646,85.019,0,89.665,0,95.388c0,39.103,30.175,71.3,68.459,74.525
			c0,0,33.825,108.34,33.908,108.547c8.866,26.214,27.593,46.932,51.982,57.851v94.984c-12.557,1.348-23.041,10.888-25.001,23.248
			c-1.296,8.15,1.006,16.394,6.315,22.616c5.319,6.222,13.055,9.799,21.237,9.799h21.9c9.727,0,18.437-4.345,24.337-11.178h7.601
			c17.721,0,32.135-14.424,32.135-32.156v-20.594c0,0,0.031-57.032,0.042-84.386l114.976-15.056l59.624,74.67l0.031,21.838
			c-12.557,1.338-23.041,10.878-25.001,23.238c-1.296,8.15,1.006,16.394,6.315,22.616c5.32,6.232,13.055,9.799,21.226,9.799h15.502
			c0.363,0.477,0.726,0.954,1.12,1.41c5.309,6.232,13.055,9.799,21.226,9.799h21.911c17.732,0,32.156-14.424,32.156-32.156h-0.124
			C511.948,454.294,512,387.453,512,387.453z M222.133,423.031v20.594c0,6.222-4.998,11.292-11.189,11.406
			c0-0.073,0.01-0.156,0.01-0.228v-20.594c0,0,0-15.876,0.01-35.235c0.01-19.36,0.01-42.203,0.021-56.14l11.189-1.472
			C222.165,369.742,222.133,423.031,222.133,423.031z M430.393,454.543c-0.021,0.156-0.042,0.311-0.062,0.467h-10.245
			c-2.095,0-4.086-0.923-5.444-2.52c-0.809-0.944-2.084-2.955-1.618-5.9c0.539-3.38,3.785-5.921,7.57-5.921l7.497-0.114
			c5.662-0.093,10.193-4.708,10.193-10.369l-0.031-35.515c0-2.333-0.778-4.594-2.219-6.419l-52.625-65.981
			c7.062,1.618,13.522,5.568,18.115,11.386l53.869,70.419v27.22C442.836,432.643,432.353,442.183,430.393,454.543z M491.261,454.803
			L491.261,454.803c0,6.294-5.122,11.417-11.417,11.417h-21.911c-2.095,0-4.086-0.923-5.454-2.52
			c-0.798-0.944-2.074-2.955-1.607-5.9c0.539-3.38,3.785-5.921,7.57-5.921l7.487-0.114c5.662-0.093,10.203-4.708,10.203-10.369
			V400.56c0-0.062-0.01-0.135-0.021-0.197c-0.041-2.136-0.726-4.272-2.115-6.108l-56.047-73.26
			c-0.021-0.031-0.052-0.073-0.083-0.114c-11.469-14.569-30.009-22.128-48.404-19.723l-170.193,22.284
			c-5.226,0.684-9.011,5.143-9.011,10.276h-0.01c-0.01,18.54-0.031,99.246-0.031,100.469c0,0.01,0,0.01,0,0.021v20.594
			c0,6.294-5.122,11.417-11.417,11.417h-21.9c-2.105,0-4.096-0.923-5.454-2.52c-0.809-0.944-2.084-2.955-1.618-5.9
			c0.539-3.38,3.795-5.921,7.57-5.921l7.487-0.114c5.662-0.093,10.203-4.708,10.203-10.369V329.312c0-4.5-2.883-8.327-6.885-9.758
			v-0.01c-21.869-7.808-38.75-25.364-46.341-48.156c-0.031-0.104-0.073-0.207-0.104-0.311L86.066,156.724
			c-1.348-4.334-5.361-7.29-9.903-7.29h-1.369c-26.255,0-48.207-18.82-53.05-43.676h40.928c2.385,0,4.687-0.819,6.533-2.312
			l35.515-28.786h12.454c8.368,0.467,16.197-4.583,19.194-12.485c0.27-0.736,0.456-1.078,0.456-1.078
			c2.229-4.106,5.838-7.165,10.069-8.731c0.964,4.386,0.353,9.073-1.856,13.148c-0.435,0.788-0.892,1.514-1.369,2.157
			c-4.894,6.668-4.677,15.865,0.529,22.367l62.984,78.673c1.607,2.001,3.909,3.349,6.45,3.754c0,0,228.283,36.666,228.708,36.739
			c12.723,2.167,25.167-3.422,31.679-14.248c2.779-4.614,5.299-9.167,7.58-13.625c-1.4,9.25-3.432,18.043-6.336,25.519
			c-4.22,10.857-6.025,21.973-5.34,33.027c0.042,0.684,0.062,97.089,0.062,97.089c0,1.379,0.28,2.748,0.819,4.023l20.459,48.56
			c0,0,0.052,64.747,0.124,65.255H491.261z"/>
	</g>
</g>
<g>
	<g>
		<path d="M122.307,44.889c-4.407,1.628-8.13,4.822-10.473,9.032h5.485c0.404-0.975,0.83-1.887,1.265-2.696
			c1.13-2.074,2.447-4.013,3.888-5.828C122.411,45.232,122.369,45.055,122.307,44.889z"/>
	</g>
</g>
<g>
	<g>
		<path d="M88.741,98.841c-5.651,0-10.245,4.594-10.245,10.245c0,5.662,4.594,10.245,10.245,10.245
			c5.662,0,10.245-4.583,10.245-10.245C98.986,103.435,94.403,98.841,88.741,98.841z"/>
	</g>
</g>
<g id="SVGCleanerId_1">
	<g>
		<path d="M184.399,274.199c-7.808-2.789-13.936-9.332-16.84-17.991l-9.478-30.362c-1.701-5.475-7.518-8.513-12.982-6.813
			c-5.475,1.711-8.524,7.518-6.813,12.993l9.509,30.455c0.01,0.052,0.031,0.104,0.041,0.145c0.01,0.021,0.042,0.104,0.042,0.114
			c4.905,14.735,15.668,26.038,29.553,30.994c1.151,0.415,2.323,0.601,3.484,0.601c4.262,0,8.254-2.644,9.768-6.885
			C192.601,282.059,189.791,276.127,184.399,274.199z"/>
	</g>
</g>
<g>
	<g>
		<path d="M184.399,274.199c-7.808-2.789-13.936-9.332-16.84-17.991l-9.478-30.362c-1.701-5.475-7.518-8.513-12.982-6.813
			c-5.475,1.711-8.524,7.518-6.813,12.993l9.509,30.455c0.01,0.052,0.031,0.104,0.041,0.145c0.01,0.021,0.042,0.104,0.042,0.114
			c4.905,14.735,15.668,26.038,29.553,30.994c1.151,0.415,2.323,0.601,3.484,0.601c4.262,0,8.254-2.644,9.768-6.885
			C192.601,282.059,189.791,276.127,184.399,274.199z"/>
	</g>
</g>
</svg>