<?xml version="1.0" encoding="iso-8859-1"?>
<!-- Uploaded to: SVG Repo, www.svgrepo.com, Generator: SVG Repo Mixer Tools -->
<svg fill="#000000" height="800px" width="800px" version="1.1" id="Layer_1" xmlns="http://www.w3.org/2000/svg" xmlns:xlink="http://www.w3.org/1999/xlink" 
	 viewBox="0 0 512.001 512.001" xml:space="preserve">
<g>
	<g>
		<path d="M510.784,269.896c-0.182-0.35-4.559-8.713-13.092-20.978c-3.4-4.887-10.119-6.093-15.004-2.693
			c-4.887,3.4-6.092,10.117-2.693,15.003c3.921,5.636,6.874,10.358,8.826,13.636c-5.728,9.591-20.051,31.596-42.504,53.304
			c-39.155,37.854-83.334,57.047-131.311,57.047c-14.089,0-29.063-1.703-44.506-5.063c-0.022-0.004-0.043-0.01-0.065-0.015
			c-0.067-0.014-0.132-0.032-0.198-0.045c-21.91-4.786-45.333-13.007-69.619-24.44c-40.261-18.97-75.688-43.399-98.384-60.608
			c-7.987-6.6-13.871-13.989-13.923-14.052c-3.681-4.675-10.459-5.482-15.137-1.798c-4.677,3.683-5.482,10.461-1.798,15.137
			c0.235,0.3,4.773,6.02,11.611,12.455c-2.931,7.47-6.819,13.686-11.629,18.498c-14.17,14.17-36.831,17.204-49.694,17.712
			c0.508-12.871,3.549-35.53,17.731-49.706c3.387-3.395,7.526-6.371,12.307-8.845c3.574-1.851,5.821-5.539,5.824-9.564
			c0.003-4.026-2.237-7.718-5.81-9.574c-4.793-2.491-8.942-5.472-12.334-8.866c-14.175-14.169-17.214-36.83-17.72-49.693
			c12.871,0.507,35.53,3.545,49.7,17.715c6.111,6.103,10.757,14.459,13.813,24.834c1.001,3.399,3.609,6.088,6.974,7.195
			c3.367,1.105,7.06,0.488,9.882-1.653c38.463-29.189,97.36-67.305,159.531-83.132c18.692-4.764,36.672-7.181,53.444-7.181
			c16.59,0,32.994,2.375,48.76,7.058c0.01,0.002,0.018,0.005,0.027,0.009c0.082,0.024,0.163,0.055,0.246,0.078
			c26.989,8.058,52.601,22.911,76.129,44.161c4.416,3.989,11.234,3.643,15.223-0.775c3.99-4.418,3.643-11.234-0.774-15.224
			c-24.687-22.296-51.619-38.242-80.108-47.47c-8.198-15.997-39.61-68.655-107.632-91.772c-7.947-2.698-16.391-0.516-22.041,5.692
			c-5.583,6.133-7,14.987-3.609,22.553c7.333,16.373,14.485,40.194,8.955,63.595c-57.408,15.893-111.213,48.756-149.689,76.7
			c-3.699-7.709-8.346-14.375-13.894-19.917c-27.734-27.734-74.553-24.049-76.535-23.876c-5.222,0.449-9.365,4.592-9.813,9.813
			c-0.17,1.979-3.858,48.8,23.887,76.533c1.094,1.094,2.234,2.155,3.422,3.183c-1.187,1.029-2.327,2.091-3.419,3.186
			c-27.748,27.735-24.061,74.556-23.89,76.536c0.449,5.222,4.592,9.365,9.813,9.813c1.981,0.172,48.799,3.858,76.535-23.877
			c5.552-5.553,10.202-12.225,13.899-19.932c22.563,16.361,53.393,36.525,87.9,53.102c6.146,12.494,1.112,35.468-5.427,52.111
			c-2.575,6.565-1.505,13.785,2.862,19.312c3.765,4.764,9.32,7.431,15.261,7.431c0.931,0,1.873-0.066,2.818-0.199
			c54.661-7.776,69.841-32.717,73.833-48.854c12.802,2.169,25.293,3.275,37.259,3.275c53.23,0,103.996-21.996,146.815-63.61
			c32.035-31.135,48.287-62.016,48.964-63.315C512.407,276.729,512.406,273.014,510.784,269.896z M344.884,145.289
			c-9.849-1.537-19.834-2.319-29.878-2.319c-13.44,0-27.514,1.392-42.008,4.13c2.994-24.784-3.953-48.419-11.414-65.529
			C304.579,96.681,331.058,125.653,344.884,145.289z M204.252,430.498c3.943-10.715,9.306-28.823,8.374-46.062
			c15.083,6.111,29.818,11.001,44.055,14.605C254.005,408.283,243.588,424.128,204.252,430.498z"/>
	</g>
</g>
<g>
	<g>
		<path d="M479.677,225.623c-1.164-1.36-2.362-2.735-3.593-4.118c-3.957-4.447-10.768-4.847-15.218-0.891
			c-4.45,3.957-4.848,10.769-0.892,15.218c1.138,1.279,2.245,2.549,3.321,3.807c2.133,2.492,5.154,3.772,8.196,3.772
			c2.479,0,4.971-0.85,7.002-2.589C483.017,236.951,483.547,230.147,479.677,225.623z"/>
	</g>
</g>
<g>
	<g>
		<path d="M382.771,235.387c-21.766,0-39.474,17.707-39.474,39.474c0,21.766,17.709,39.474,39.474,39.474
			c21.772,0,39.486-17.709,39.486-39.474S404.544,235.387,382.771,235.387z M382.771,292.778c-9.879,0-17.917-8.038-17.917-17.917
			s8.038-17.917,17.917-17.917c9.885,0,17.928,8.037,17.928,17.917S392.657,292.778,382.771,292.778z"/>
	</g>
</g>
<g>
	<g>
		<path d="M281.984,310.21c-10.429,11.287-25.066,19.169-35.597,19.169c-18.369,0-33.888-24.959-33.888-54.504
			c0-29.545,15.518-54.506,33.888-54.506c10.532,0,25.17,7.883,35.597,19.169c4.039,4.373,10.859,4.642,15.232,0.603
			s4.642-10.86,0.603-15.232c-14.873-16.097-34.58-26.097-51.431-26.097c-15.599,0-29.976,8.457-40.482,23.813
			c-9.649,14.104-14.964,32.66-14.964,52.249c0,19.589,5.315,38.144,14.964,52.249c10.506,15.356,24.883,23.813,40.482,23.813
			c16.852,0,36.559-10,51.431-26.097c4.04-4.372,3.77-11.192-0.603-15.232C292.843,305.566,286.023,305.837,281.984,310.21z"/>
	</g>
</g>
</svg>