<?xml version="1.0" encoding="iso-8859-1"?>
<!-- Uploaded to: SVG Repo, www.svgrepo.com, Generator: SVG Repo Mixer Tools -->
<svg fill="#000000" height="800px" width="800px" version="1.1" id="Layer_1" xmlns="http://www.w3.org/2000/svg" xmlns:xlink="http://www.w3.org/1999/xlink" 
	 viewBox="0 0 511.999 511.999" xml:space="preserve">
<g>
	<g>
		<path d="M464.369,143.408c0-12.906-5.032-25.034-14.158-34.172c-9.126-9.126-21.266-14.146-34.172-14.146
			s-25.046,5.021-34.172,14.146l-17.836,17.844c-14.795-13.032-31.953-23.432-50.736-30.469V57.293
			C313.296,25.701,287.594,0,256.003,0c-31.592,0-57.294,25.701-57.294,57.293v39.327c-0.001,0-0.002,0.001-0.003,0.001
			c-18.783,7.038-35.944,17.438-50.74,30.46l-17.835-17.844c-9.126-9.126-21.266-14.146-34.172-14.146s-25.046,5.021-34.172,14.146
			c-9.126,9.137-14.158,21.266-14.158,34.172c0,12.917,5.032,25.046,14.158,34.183l34.844,34.844
			c-2.841,12.071-4.348,24.64-4.348,37.569v51.495c0,25.533,5.867,49.709,16.338,71.265l-18.703,18.703
			c-10.621,10.621-16.465,24.733-16.465,39.749c0,15.016,5.844,29.139,16.465,39.749c10.61,10.621,24.733,16.465,39.749,16.465
			s29.128-5.844,39.749-16.465l19.932-19.932c8.859,3.966,18.135,7.166,27.748,9.52h0.001l9.584,24.521
			c9.157,23.427,22.304,26.926,29.326,26.926c7.021,0,20.168-3.5,29.325-26.927l9.584-24.521c9.611-2.354,18.887-5.554,27.757-9.519
			l0.001-0.001l19.943,19.934c10.61,10.621,24.733,16.465,39.749,16.465c15.016,0,29.128-5.844,39.749-16.465
			c21.915-21.915,21.915-57.571,0-79.498l-18.718-18.709c0.001-0.002,0.002-0.003,0.003-0.006
			c10.471-21.556,16.338-45.732,16.338-71.254v-51.495c0-12.929-1.507-25.51-4.36-37.581l34.832-34.832
			C459.336,168.454,464.369,156.325,464.369,143.408z M396.547,250.004v14.145h-53.791l-32.258-55.877l-0.003-0.005l37.294-64.604
			C377.635,169.451,396.547,207.565,396.547,250.004z M322.673,275.757l-33.337,57.733h-66.662l-33.337-57.733l33.337-57.745h66.662
			L322.673,275.757z M221.902,64.572c1.869,1.51,4.245,2.418,6.834,2.418c6.014,0,10.89-4.876,10.89-10.892
			c0-6.014-4.876-10.89-10.89-10.89c-1.827,0-3.547,0.456-5.059,1.251c4.538-13.507,17.31-23.268,32.327-23.268
			c15.015,0,27.786,9.759,32.327,23.264c-1.511-0.793-3.227-1.248-5.052-1.248c-6.014,0-10.89,4.876-10.89,10.89
			c0,6.015,4.876,10.892,10.89,10.892c2.587,0,4.959-0.907,6.829-2.413V89.85c-0.001,0-0.002-0.001-0.005-0.001
			c-11.004-2.342-22.402-3.571-34.09-3.571c-11.699,0-23.107,1.229-34.11,3.583V64.572z M184.653,128.982
			c20.931-12.406,45.327-19.514,71.359-19.514c26.688,0,51.661,7.477,72.936,20.448l-37.468,64.905h-68.813l-38.014-65.838V128.982z
			 M165.656,142.462l36.935,63.969l-33.324,57.719h-53.791v-14.145C115.476,206.896,134.989,168.25,165.656,142.462z
			 M104.634,187.633l-26.449-26.449c-4.742-4.742-7.363-11.062-7.363-17.776c0-6.714,2.621-13.022,7.363-17.764
			c4.742-4.754,11.062-7.363,17.776-7.363c6.714,0,13.022,2.609,17.776,7.363l17.938,17.938
			C120.473,156.65,111.301,171.492,104.634,187.633z M153.01,454.569c-6.227,6.238-14.529,9.671-23.341,9.671
			c-8.824,0-17.115-3.432-23.353-9.671c-6.238-6.238-9.671-14.529-9.671-23.353c0-8.812,3.432-17.115,9.671-23.341l14.34-14.348
			c0.001,0.001,0.002,0.003,0.003,0.005c12.511,18.344,28.664,34.032,47.39,45.999c0.001,0.001,0.003,0.001,0.005,0.002
			L153.01,454.569z M167.101,410.254c-0.001-0.001-0.001-0.001-0.002-0.002c-31.493-25.788-51.623-64.969-51.623-108.753V287.34
			h53.779v0.001l34.402,59.587L167.101,410.254z M263.732,476.632c-3.283,8.402-6.522,11.471-7.724,12.1
			c-1.202-0.628-4.441-3.698-7.725-12.1l-4.639-11.869c4.08,0.313,8.206,0.464,12.368,0.464c4.163,0,8.279-0.151,12.359-0.464
			L263.732,476.632z M327.346,422.543c-1.878,1.113-3.792,2.192-5.728,3.212c-0.012,0-0.023,0.012-0.035,0.012
			c-1.229,0.661-2.458,1.287-3.711,1.89c-18.68,9.207-39.679,14.378-61.861,14.378s-43.181-5.172-61.861-14.378
			c-1.252-0.603-2.493-1.229-3.722-1.902c-0.012,0-0.012,0-0.012,0c-1.403-0.731-2.794-1.496-4.163-2.284
			c-0.001,0-0.002-0.001-0.003-0.002l38.556-66.787h64.526l38.019,65.858C327.35,422.541,327.347,422.542,327.346,422.543z
			 M309.421,345.094l33.347-57.753v-0.001h53.779v14.159c0,43.123-19.515,81.77-50.196,107.559
			c-0.001,0.001-0.002,0.001-0.003,0.002L309.421,345.094z M405.708,407.875c12.882,12.871,12.882,33.824,0,46.695
			c-6.227,6.238-14.529,9.671-23.341,9.671c-8.824,0-17.115-3.432-23.353-9.671l-15.044-15.036c0.001-0.001,0.003-0.002,0.005-0.003
			c18.725-11.978,34.878-27.654,47.389-46.008L405.708,407.875z M433.815,161.184l-26.426,26.426
			c-6.679-16.129-15.862-30.971-27.064-44.028l17.938-17.938c4.754-4.754,11.062-7.363,17.776-7.363s13.033,2.609,17.776,7.363
			c4.742,4.743,7.363,11.05,7.363,17.764C441.178,150.122,438.557,156.441,433.815,161.184z"/>
	</g>
</g>
</svg>