<!DOCTYPE svg PUBLIC "-//W3C//DTD SVG 1.1//EN" "http://www.w3.org/Graphics/SVG/1.1/DTD/svg11.dtd">
<!-- Uploaded to: SVG Repo, www.svgrepo.com, Transformed by: SVG Repo Mixer Tools -->
<svg fill="#0033ff" height="64px" width="64px" version="1.1" id="Capa_1" xmlns="http://www.w3.org/2000/svg" xmlns:xlink="http://www.w3.org/1999/xlink" viewBox="0 0 381.268 381.268" xml:space="preserve" stroke="#0033ff">
<g id="SVGRepo_bgCarrier" stroke-width="0"/>
<g id="SVGRepo_tracerCarrier" stroke-linecap="round" stroke-linejoin="round"/>
<g id="SVGRepo_iconCarrier"> <path id="XMLID_704_" d="M123.348,363.268H71.045c-6.552,0-10.475-5.879-10.964-11.687L39.075,101.872h163.778l-7.994,95.022 c-0.417,4.953,3.261,9.307,8.214,9.724c4.944,0.408,9.306-3.262,9.723-8.214l8.146-96.833c3.849-1.021,6.685-4.529,6.685-8.699 V50.936c0-4.971-4.029-9-9-9h-54.528V9c0-4.971-4.029-9-9-9H85.976c-4.971,0-9,4.029-9,9v32.936H22.444c-4.971,0-9,4.029-9,9v41.937 c0,4.479,3.272,8.194,7.557,8.885l21.144,251.334c1.352,16.063,13.776,28.177,28.9,28.177h52.302c4.971,0,9-4.029,9-9 S128.318,363.268,123.348,363.268z M94.976,18h51.122v23.936H94.976V18z M31.444,59.936h178.182v23.937H31.444V59.936z M161.658,160.867c-3.514-3.516-3.512-9.215,0.004-12.729l3.314-3.313c3.516-3.515,9.214-3.513,12.728,0.004 c3.514,3.516,3.512,9.215-0.003,12.729l-3.315,3.313c-1.757,1.756-4.06,2.634-6.362,2.634 C165.719,163.505,163.416,162.626,161.658,160.867z M140.616,188.698c-3.516-3.515-3.516-9.213-0.002-12.729 c3.514-3.515,9.212-3.517,12.728-0.002l3.313,3.312c3.516,3.515,3.516,9.213,0.002,12.729c-1.757,1.758-4.061,2.637-6.365,2.637 c-2.303,0-4.605-0.878-6.363-2.635L140.616,188.698z M349.806,164.532l1.724-44.892c0.094-2.445-0.812-4.823-2.508-6.586 c-1.697-1.764-4.038-2.76-6.485-2.76h-40.176c-4.971,0-9,4.029-9,9v31.327c-17.818,39.898-53.673,69.759-96.261,80.058 c-46.102,11.147-64.068,4.545-84.417-5.997c-15.756-8.162-24.23,0.283-26.453,3.067c-8.897,11.141-4.993,33.407,8.704,49.636 c3.206,3.798,8.885,4.277,12.683,1.073c3.798-3.206,4.279-8.884,1.073-12.683c-9.732-11.531-10.166-23.878-8.563-26.557 c0.527,0.017,1.882,0.205,4.276,1.445c22.28,11.544,44.952,20.078,96.927,7.511c41.665-10.075,77.61-36.77,99.502-73.059 c0.497,0.085,1.008,0.129,1.529,0.129h4.237c-8.26,48.979-41.338,89.92-88.2,108.265c-44.168,17.287-62.863,13.18-84.451,5.491 c-16.711-5.949-23.968,3.563-25.793,6.621c-7.307,12.242-0.424,33.775,15.344,47.999c26.907,24.276,61.704,37.646,97.979,37.646 c80.695,0,146.346-65.651,146.346-146.348C367.823,210.271,361.603,186.006,349.806,164.532z M311.361,152.716 c0.003-0.135,0.003-0.269,0-0.403v-24.018h21.824l-1.112,28.951h-15.104c-0.071,0-0.144,0-0.215,0h-5.392V152.716z M221.477,363.268 c-31.813,0-62.327-11.724-85.922-33.011c-11.202-10.105-13.305-22.279-12.08-25.151c0.525-0.055,1.892-0.052,4.432,0.854 c23.641,8.42,47.26,13.804,97.052-5.687c27.159-10.632,50.93-28.541,68.742-51.79c16.447-21.467,27.119-46.638,31.118-73.236h10.311 c9.627,18.312,14.693,38.832,14.693,59.674C349.823,305.691,292.248,363.268,221.477,363.268z M141.461,140.476 c-1.757,1.757-4.061,2.636-6.364,2.636s-4.606-0.879-6.364-2.636c-3.515-3.515-3.515-9.214,0-12.729l3.312-3.312 c3.515-3.514,9.213-3.514,12.728,0c3.515,3.515,3.515,9.214,0,12.729L141.461,140.476z"/> </g>
</svg>